HIERARCHY
ROOT RootJoint
{
    OFFSET   0.000000   0.000000   0.000000
    CHANNELS 6 Xposition Yposition Zposition Xrotation Yrotation Zrotation
    JOINT pelvis_lowerback
    {
        OFFSET   0.000000   0.093605   0.000000
        CHANNELS 3 Xrotation Yrotation Zrotation
        JOINT lowerback_torso
        {
            OFFSET   0.000000   0.100000   0.000000
            CHANNELS 3 Xrotation Yrotation Zrotation
            JOINT torso_head
            {
                OFFSET   0.000000   0.282350   0.000000
                CHANNELS 3 Xrotation Yrotation Zrotation
                End Site
                {
                    OFFSET   0.000000   0.192650   0.000000
                }
            }
            JOINT rTorso_Clavicle
            {
                OFFSET  -0.001000   0.157500   0.000000
                CHANNELS 3 Xrotation Yrotation Zrotation
                JOINT rShoulder
                {
                    OFFSET  -0.117647   0.000000   0.000000
                    CHANNELS 3 Xrotation Yrotation Zrotation
                    JOINT rElbow
                    {
                        OFFSET  -0.245000   0.000000   0.000000
                        CHANNELS 3 Xrotation Yrotation Zrotation
                        JOINT rWrist
                        {
                            OFFSET  -0.240000   0.000000   0.000000
                            CHANNELS 3 Xrotation Yrotation Zrotation
                            End Site
                            {
                                OFFSET  -0.116353  -0.002500   0.000000
                            }
                        }
                    }
                }
            }
            JOINT lTorso_Clavicle
            {
                OFFSET   0.001000   0.157500   0.000000
                CHANNELS 3 Xrotation Yrotation Zrotation
                JOINT lShoulder
                {
                    OFFSET   0.117647   0.000000   0.000000
                    CHANNELS 3 Xrotation Yrotation Zrotation
                    JOINT lElbow
                    {
                        OFFSET   0.245000   0.000000   0.000000
                        CHANNELS 3 Xrotation Yrotation Zrotation
                        JOINT lWrist
                        {
                            OFFSET   0.240000   0.000000   0.000000
                            CHANNELS 3 Xrotation Yrotation Zrotation
                            End Site
                            {
                                OFFSET   0.116353  -0.002500   0.000000
                            }
                        }
                    }
                }
            }
        }
    }
    JOINT rHip
    {
        OFFSET  -0.100000  -0.051395   0.000000
        CHANNELS 3 Xrotation Yrotation Zrotation
        JOINT rKnee
        {
            OFFSET   0.000000  -0.410000   0.000000
            CHANNELS 3 Xrotation Yrotation Zrotation
            JOINT rAnkle
            {
                OFFSET   0.000000  -0.390000   0.000000
                CHANNELS 3 Xrotation Yrotation Zrotation
                JOINT rToeJoint
                {
                    OFFSET   0.000000  -0.050000   0.130000
                    CHANNELS 3 Xrotation Yrotation Zrotation
                    End Site
                    {
                        OFFSET  -0.010000   0.002000   0.060000
                    }
                }
            }
        }
    }
    JOINT lHip
    {
        OFFSET   0.100000  -0.051395   0.000000
        CHANNELS 3 Xrotation Yrotation Zrotation
        JOINT lKnee
        {
            OFFSET   0.000000  -0.410000   0.000000
            CHANNELS 3 Xrotation Yrotation Zrotation
            JOINT lAnkle
            {
                OFFSET   0.000000  -0.390000   0.000000
                CHANNELS 3 Xrotation Yrotation Zrotation
                JOINT lToeJoint
                {
                    OFFSET   0.000000  -0.050000   0.130000
                    CHANNELS 3 Xrotation Yrotation Zrotation
                    End Site
                    {
                        OFFSET   0.010000   0.002000   0.060000
                    }
                }
            }
        }
    }
}
MOTION
Frames: 10
Frame Time:   0.008333
 -2.443161   0.918487   3.982489   3.529558  -5.681298   0.966655   0.544088   0.586507   0.343921  -0.892954  -1.327474  -3.607515   0.481564  -5.856025   0.611869 -11.254200  -1.121450 -12.794419 -45.315508   7.831757   9.790527   0.034463  75.342319  -0.034624  -1.533102   8.117291 -10.494852   1.254521   3.569361  -4.930999   8.427860  -3.021589 -47.100464   0.002017 -24.651337   0.002946   0.420662  -4.050035   5.854398   0.310948  -7.522715  -3.942467   2.664001  -0.000026  -0.000246  -6.008133  -8.598036   0.740296  -0.111788   0.000003  -0.000035  -2.554802   0.069093   4.367299   0.520699   0.000015  -0.000296  -1.405898   5.041585  -0.146818   0.288196  -0.000022   0.000000
 -2.443163   0.918441   3.983153   3.617693  -5.522525   0.987592   0.500465   0.555761   0.376850  -1.059892  -1.356320  -3.555037   0.450573  -5.814255   0.673379 -11.612364  -1.420141 -12.730435 -47.366327   7.302750   9.848666   0.005723  75.590963  -0.005924  -1.641095   8.097915 -11.267654   1.261578   3.732941  -4.826377   8.364359  -3.040310 -47.135568   0.002014 -24.484324   0.002865   0.464622  -4.114243   5.852900   0.313730  -7.612248  -3.953952   2.604629  -0.000029  -0.000235  -6.034946  -8.672622   0.755476  -0.113461   0.000003  -0.000028  -2.589984  -0.007213   4.345656   0.439917   0.000010  -0.000290  -1.380881   4.965470  -0.176490   0.281963  -0.000019   0.000000
 -2.443135   0.918395   3.983822   3.704857  -5.374124   1.009573   0.455729   0.520696   0.409425  -1.224084  -1.390759  -3.503495   0.424287  -5.774576   0.732003 -11.967114  -1.721630 -12.676359 -49.291142   6.799937   9.869927  -0.016682  75.836521   0.016307  -1.732928   8.160068 -12.089193   1.274934   3.896052  -4.720882   8.311640  -3.050066 -47.163565   0.001993 -24.325198   0.002742   0.505597  -4.167255   5.861079   0.313375  -7.695474  -3.969185   2.550015  -0.000031  -0.000221  -6.063130  -8.743067   0.769607  -0.114400   0.000002  -0.000023  -2.621988  -0.078178   4.320907   0.358645   0.000005  -0.000282  -1.357134   4.894538  -0.204508   0.275419  -0.000017   0.000000
 -2.443077   0.918350   3.984486   3.787494  -5.239692   1.031992   0.409216   0.481873   0.441941  -1.382120  -1.429482  -3.452479   0.401146  -5.737461   0.786825 -12.307145  -2.015899 -12.630933 -51.090498   6.325291   9.864843  -0.032748  76.066667   0.032150  -1.816010   8.240401 -12.913896   1.291949   4.054221  -4.617553   8.267020  -3.054086 -47.186227   0.001951 -24.174107   0.002585   0.543552  -4.204683   5.876331   0.313268  -7.771158  -3.987750   2.498719  -0.000033  -0.000205  -6.091211  -8.807064   0.782242  -0.114511   0.000002  -0.000018  -2.649223  -0.142134   4.293661   0.281426  -0.000000  -0.000269  -1.336937   4.830465  -0.231508   0.268475  -0.000016   0.000000
 -2.442990   0.918305   3.985138   3.864738  -5.119202   1.054606   0.361425   0.440103   0.474748  -1.533552  -1.471153  -3.401757   0.380121  -5.702915   0.837926 -12.629118  -2.299265 -12.590546 -52.770535   5.878464   9.840848  -0.043688  76.281207   0.042870  -1.893344   8.321683 -13.721025   1.310128   4.204977  -4.518062   8.227880  -3.055010 -47.205121   0.001889 -24.031582   0.002403   0.579106  -4.231250   5.895511   0.313830  -7.839380  -4.009397   2.450560  -0.000035  -0.000187  -6.118377  -8.864533   0.794159  -0.114000   0.000001  -0.000015  -2.671978  -0.199196   4.264258   0.209449  -0.000005  -0.000251  -1.320304   4.773219  -0.257624   0.261152  -0.000015   0.000000
 -2.442875   0.918263   3.985769   3.936470  -5.011581   1.077225   0.312875   0.396201   0.508239  -1.678447  -1.514837  -3.351054   0.360690  -5.670798   0.885504 -12.932104  -2.570075 -12.552685 -54.338328   5.458509   9.803095  -0.050628  76.481093   0.049621  -1.965893   8.400710 -14.502476   1.327831   4.346931  -4.423456   8.192387  -3.054614 -47.221409   0.001810 -23.897878   0.002209   0.612799  -4.251869   5.916484   0.314982  -7.900760  -4.033724   2.405406  -0.000036  -0.000169  -6.144381  -8.915912   0.804570  -0.112737   0.000001  -0.000012  -2.690804  -0.249951   4.232987   0.142760  -0.000010  -0.000230  -1.306667   4.722250  -0.282873   0.253494  -0.000014   0.000000
 -2.442733   0.918222   3.986375   4.002828  -4.915529   1.099741   0.264014   0.350891   0.542703  -1.816980  -1.559811  -3.300175   0.342562  -5.640947   0.929807 -13.216200  -2.827595 -12.515889 -55.801007   5.064255   9.755301  -0.054504  76.667351   0.053347  -2.034081   8.477194 -15.255172   1.344088   4.479455  -4.334262   8.159341  -3.054010 -47.235880   0.001719 -23.772960   0.002010   0.645023  -4.270076   5.937892   0.316562  -7.955972  -4.060447   2.363101  -0.000037  -0.000152  -6.168953  -8.961814   0.813603  -0.110792   0.000001  -0.000009  -2.706257  -0.295079   4.200064   0.081079  -0.000014  -0.000208  -1.295404   4.676899  -0.307253   0.245547  -0.000014   0.000000
 -2.442582   0.918181   3.987034   4.041881  -4.864643   1.124764   0.243897   0.321501   0.579527  -1.957734  -1.599468  -3.259008   0.304068  -5.618570   0.980082 -13.450907  -3.109492 -12.537549 -57.074267   4.607474   9.707587  -0.069892  77.050012   0.068010  -2.090417   8.464670 -15.985570   1.364847   4.642189  -4.218851   8.119305  -3.054146 -47.296892   0.001684 -23.617896   0.001922   0.696817  -4.330871   5.958604   0.338967  -7.971307  -4.095951   2.332587  -0.000036  -0.000132  -6.195864  -9.002588   0.841143  -0.112436   0.000001  -0.000007  -2.681912  -0.315983   4.161097   0.021558  -0.000019  -0.000179  -1.300986   4.653074  -0.305384   0.242773  -0.000011   0.000000
 -2.442422   0.918140   3.987705   4.074896  -4.827252   1.150103   0.219200   0.289427   0.615777  -2.090370  -1.639556  -3.218255   0.267144  -5.598212   1.027951 -13.667195  -3.385625 -12.555987 -58.256431   4.180537   9.650578  -0.080785  77.419900   0.078278  -2.124911   8.520963 -16.645302   1.392949   4.804606  -4.112640   8.090048  -3.047351 -47.357634   0.001622 -23.469259   0.001812   0.744599  -4.373426   5.972443   0.364370  -7.980864  -4.133332   2.306269  -0.000034  -0.000112  -6.224776  -9.035709   0.866844  -0.113414   0.000001  -0.000006  -2.652243  -0.330491   4.121376  -0.029095  -0.000022  -0.000150  -1.313696   4.636074  -0.304622   0.239533  -0.000009   0.000000
 -2.442253   0.918099   3.988353   4.098168  -4.795104   1.174572   0.197912   0.255096   0.652246  -2.214516  -1.680402  -3.177949   0.232478  -5.579586   1.072791 -13.870589  -3.649052 -12.571729 -59.359425   3.780609   9.586542  -0.087436  77.766525   0.084473  -2.151568   8.594293 -17.271351   1.422246   4.959409  -4.015462   8.065847  -3.038515 -47.415972   0.001541 -23.328776   0.001685   0.789311  -4.402846   5.981286   0.395356  -7.988942  -4.171425   2.284491  -0.000032  -0.000095  -6.254709  -9.065080   0.890451  -0.113812   0.000001  -0.000005  -2.640500  -0.344336   4.081551  -0.023276  -0.000017  -0.000119  -1.354293   4.621353  -0.306953   0.235471  -0.000008   0.000000
